<svg xmlns="http://www.w3.org/2000/svg" width="15" height="15" viewBox="0 0 544 556">
  <g id="Group_60" data-name="Group 60" transform="translate(-1074 -308)">
    <path id="star" d="M529.563,194.169,362.329,168.624,287.371,8.96c-5.6-11.923-25.16-11.923-30.759,0L181.676,168.624,14.442,194.169a16.992,16.992,0,0,0-9.588,28.673l121.493,124.53L97.628,523.425c-2.289,13.985,12.648,24.48,25,17.612L272,458.485l149.373,82.574c12.24,6.8,27.313-3.491,25-17.612L417.658,347.4l121.493-124.53a17.014,17.014,0,0,0-9.588-28.7Z" transform="translate(1074 308.369)" fill="#ffc107"/>
    <rect id="Rectangle_36" data-name="Rectangle 36" width="347" height="556" transform="translate(1271 308)" fill="#fff"/>
  </g>
</svg>
